<?xml version="1.0" standalone="no"?>
<!DOCTYPE svg PUBLIC "-//W3C//DTD SVG 20010904//EN"
 "http://www.w3.org/TR/2001/REC-SVG-20010904/DTD/svg10.dtd">
<svg version="1.0" xmlns="http://www.w3.org/2000/svg"
 width="1604.000000pt" height="330.000000pt" viewBox="0 0 1604.000000 330.000000"
 preserveAspectRatio="xMidYMid meet">

<g transform="translate(0.000000,330.000000) scale(0.100000,-0.100000)"
fill="#000000" stroke="none">
<path d="M1663 3189 c-50 -5 -135 -20 -190 -34 -107 -27 -263 -85 -263 -97 0
-5 23 -41 52 -81 28 -39 52 -73 53 -74 0 -1 45 13 100 32 134 46 252 65 400
65 258 0 486 -70 705 -215 72 -48 300 -263 300 -283 0 -5 -34 -35 -76 -65
l-76 -55 49 -10 c114 -24 394 -74 397 -71 2 2 1 93 -2 201 l-5 198 -62 -45
-63 -45 -70 83 c-241 283 -588 461 -967 497 -123 11 -150 11 -282 -1z"/>
<path d="M572 2555 l-194 -82 67 -43 c47 -30 65 -48 61 -59 -2 -9 -21 -55 -41
-104 -71 -173 -105 -350 -105 -555 0 -401 147 -761 428 -1051 71 -73 74 -75
89 -56 24 32 73 133 73 150 0 9 -30 49 -66 89 -124 137 -215 295 -273 471 -89
276 -81 593 24 865 39 101 33 99 115 41 40 -28 75 -49 77 -47 3 3 -54 439 -60
457 -1 4 -89 -31 -195 -76z"/>
<path d="M1610 2621 c-82 -18 -220 -67 -220 -79 0 -3 15 -25 33 -49 36 -49 27
-48 157 -8 218 68 477 34 675 -90 79 -49 195 -150 195 -169 0 -8 -18 -26 -40
-41 -22 -15 -40 -31 -40 -35 0 -4 64 -16 141 -27 l142 -20 -7 121 c-4 66 -9
122 -11 124 -2 2 -20 -8 -39 -23 l-36 -27 -67 66 c-114 115 -272 205 -431 248
-112 30 -337 34 -452 9z"/>
<path d="M988 2211 c-64 -31 -120 -59 -123 -63 -4 -3 6 -13 22 -22 57 -31 56
-26 24 -122 -42 -124 -55 -218 -48 -349 12 -236 107 -446 278 -614 l73 -72 29
56 28 56 -56 60 c-215 233 -283 516 -194 806 11 34 24 65 29 68 5 3 30 -6 55
-20 37 -22 45 -24 45 -11 0 16 -41 280 -44 282 0 0 -54 -24 -118 -55z"/>
<path d="M2606 1468 c-64 -204 -223 -390 -416 -488 -63 -32 -174 -68 -231 -76
l-49 -7 0 52 c0 28 -2 51 -5 51 -7 0 -225 -171 -225 -176 0 -2 54 -40 121 -85
l121 -81 -3 58 -4 57 76 13 c367 63 675 356 758 723 l9 41 -63 0 -63 0 -26
-82z"/>
<path d="M3026 1329 c-64 -203 -167 -372 -325 -530 -190 -190 -386 -297 -640
-349 -151 -31 -141 -35 -141 65 l0 85 -181 -136 -180 -135 178 -134 178 -134
5 87 5 87 65 7 c412 44 811 294 1042 653 89 137 169 322 203 468 l13 57 -97 0
-97 0 -28 -91z"/>
</g>
</svg>
